<mxfile host="app.diagrams.net" modified="2020-10-21T00:42:02.559Z" agent="5.0 (Windows NT 10.0; Win64; x64) AppleWebKit/537.36 (KHTML, like Gecko) Chrome/86.0.4240.75 Safari/537.36" etag="4FhJ8AuMXkos9yk55JUp" version="13.8.1" type="github" pages="3">
  <diagram id="C5RBs43oDa-KdzZeNtuy" name="Page-1">
    <mxGraphModel dx="868" dy="482" grid="1" gridSize="10" guides="1" tooltips="1" connect="1" arrows="1" fold="1" page="1" pageScale="1" pageWidth="827" pageHeight="1169" math="0" shadow="0">
      <root>
        <mxCell id="WIyWlLk6GJQsqaUBKTNV-0" />
        <mxCell id="WIyWlLk6GJQsqaUBKTNV-1" parent="WIyWlLk6GJQsqaUBKTNV-0" />
        <mxCell id="zkfFHV4jXpPFQw0GAbJ--17" value="Fish" style="swimlane;fontStyle=0;align=center;verticalAlign=top;childLayout=stackLayout;horizontal=1;startSize=26;horizontalStack=0;resizeParent=1;resizeLast=0;collapsible=1;marginBottom=0;rounded=0;shadow=0;strokeWidth=1;" parent="WIyWlLk6GJQsqaUBKTNV-1" vertex="1">
          <mxGeometry x="240" y="120" width="180" height="150" as="geometry">
            <mxRectangle x="550" y="140" width="160" height="26" as="alternateBounds" />
          </mxGeometry>
        </mxCell>
        <mxCell id="zkfFHV4jXpPFQw0GAbJ--18" value="-Color : string" style="text;align=left;verticalAlign=top;spacingLeft=4;spacingRight=4;overflow=hidden;rotatable=0;points=[[0,0.5],[1,0.5]];portConstraint=eastwest;" parent="zkfFHV4jXpPFQw0GAbJ--17" vertex="1">
          <mxGeometry y="26" width="180" height="26" as="geometry" />
        </mxCell>
        <mxCell id="zkfFHV4jXpPFQw0GAbJ--23" value="" style="line;html=1;strokeWidth=1;align=left;verticalAlign=middle;spacingTop=-1;spacingLeft=3;spacingRight=3;rotatable=0;labelPosition=right;points=[];portConstraint=eastwest;" parent="zkfFHV4jXpPFQw0GAbJ--17" vertex="1">
          <mxGeometry y="52" width="180" height="8" as="geometry" />
        </mxCell>
        <mxCell id="zkfFHV4jXpPFQw0GAbJ--24" value="+Swim() : void" style="text;align=left;verticalAlign=top;spacingLeft=4;spacingRight=4;overflow=hidden;rotatable=0;points=[[0,0.5],[1,0.5]];portConstraint=eastwest;" parent="zkfFHV4jXpPFQw0GAbJ--17" vertex="1">
          <mxGeometry y="60" width="180" height="26" as="geometry" />
        </mxCell>
        <mxCell id="zkfFHV4jXpPFQw0GAbJ--25" value="+SetColor(warna:string):void" style="text;align=left;verticalAlign=top;spacingLeft=4;spacingRight=4;overflow=hidden;rotatable=0;points=[[0,0.5],[1,0.5]];portConstraint=eastwest;" parent="zkfFHV4jXpPFQw0GAbJ--17" vertex="1">
          <mxGeometry y="86" width="180" height="26" as="geometry" />
        </mxCell>
        <mxCell id="B6ZiT-XVmnk7u_5Jqb1H-2" value="+GetColor():string" style="text;align=left;verticalAlign=top;spacingLeft=4;spacingRight=4;overflow=hidden;rotatable=0;points=[[0,0.5],[1,0.5]];portConstraint=eastwest;" vertex="1" parent="zkfFHV4jXpPFQw0GAbJ--17">
          <mxGeometry y="112" width="180" height="26" as="geometry" />
        </mxCell>
        <mxCell id="B6ZiT-XVmnk7u_5Jqb1H-3" value="Shark" style="swimlane;fontStyle=0;align=center;verticalAlign=top;childLayout=stackLayout;horizontal=1;startSize=26;horizontalStack=0;resizeParent=1;resizeLast=0;collapsible=1;marginBottom=0;rounded=0;shadow=0;strokeWidth=1;" vertex="1" parent="WIyWlLk6GJQsqaUBKTNV-1">
          <mxGeometry x="240" y="400" width="280" height="230" as="geometry">
            <mxRectangle x="550" y="140" width="160" height="26" as="alternateBounds" />
          </mxGeometry>
        </mxCell>
        <mxCell id="B6ZiT-XVmnk7u_5Jqb1H-4" value="-sharpTeeth :int" style="text;align=left;verticalAlign=top;spacingLeft=4;spacingRight=4;overflow=hidden;rotatable=0;points=[[0,0.5],[1,0.5]];portConstraint=eastwest;" vertex="1" parent="B6ZiT-XVmnk7u_5Jqb1H-3">
          <mxGeometry y="26" width="280" height="26" as="geometry" />
        </mxCell>
        <mxCell id="B6ZiT-XVmnk7u_5Jqb1H-5" value="" style="line;html=1;strokeWidth=1;align=left;verticalAlign=middle;spacingTop=-1;spacingLeft=3;spacingRight=3;rotatable=0;labelPosition=right;points=[];portConstraint=eastwest;" vertex="1" parent="B6ZiT-XVmnk7u_5Jqb1H-3">
          <mxGeometry y="52" width="280" height="8" as="geometry" />
        </mxCell>
        <mxCell id="B6ZiT-XVmnk7u_5Jqb1H-6" value="+Eat() : void" style="text;align=left;verticalAlign=top;spacingLeft=4;spacingRight=4;overflow=hidden;rotatable=0;points=[[0,0.5],[1,0.5]];portConstraint=eastwest;" vertex="1" parent="B6ZiT-XVmnk7u_5Jqb1H-3">
          <mxGeometry y="60" width="280" height="26" as="geometry" />
        </mxCell>
        <mxCell id="B6ZiT-XVmnk7u_5Jqb1H-7" value="+SetSharpTeeth(teeth:string):void" style="text;align=left;verticalAlign=top;spacingLeft=4;spacingRight=4;overflow=hidden;rotatable=0;points=[[0,0.5],[1,0.5]];portConstraint=eastwest;" vertex="1" parent="B6ZiT-XVmnk7u_5Jqb1H-3">
          <mxGeometry y="86" width="280" height="26" as="geometry" />
        </mxCell>
        <mxCell id="B6ZiT-XVmnk7u_5Jqb1H-8" value="+Swim(): void" style="text;align=left;verticalAlign=top;spacingLeft=4;spacingRight=4;overflow=hidden;rotatable=0;points=[[0,0.5],[1,0.5]];portConstraint=eastwest;" vertex="1" parent="B6ZiT-XVmnk7u_5Jqb1H-3">
          <mxGeometry y="112" width="280" height="26" as="geometry" />
        </mxCell>
        <mxCell id="B6ZiT-XVmnk7u_5Jqb1H-9" value="+Swim(fin : int): void" style="text;align=left;verticalAlign=top;spacingLeft=4;spacingRight=4;overflow=hidden;rotatable=0;points=[[0,0.5],[1,0.5]];portConstraint=eastwest;" vertex="1" parent="B6ZiT-XVmnk7u_5Jqb1H-3">
          <mxGeometry y="138" width="280" height="26" as="geometry" />
        </mxCell>
        <mxCell id="B6ZiT-XVmnk7u_5Jqb1H-17" value="+Swim(fin : int, dist : double): void" style="text;align=left;verticalAlign=top;spacingLeft=4;spacingRight=4;overflow=hidden;rotatable=0;points=[[0,0.5],[1,0.5]];portConstraint=eastwest;" vertex="1" parent="B6ZiT-XVmnk7u_5Jqb1H-3">
          <mxGeometry y="164" width="280" height="26" as="geometry" />
        </mxCell>
        <mxCell id="B6ZiT-XVmnk7u_5Jqb1H-26" value="+Swim(fin : int, dist : double, tail : string): void" style="text;align=left;verticalAlign=top;spacingLeft=4;spacingRight=4;overflow=hidden;rotatable=0;points=[[0,0.5],[1,0.5]];portConstraint=eastwest;" vertex="1" parent="B6ZiT-XVmnk7u_5Jqb1H-3">
          <mxGeometry y="190" width="280" height="26" as="geometry" />
        </mxCell>
        <mxCell id="B6ZiT-XVmnk7u_5Jqb1H-28" value="Extends" style="endArrow=block;endSize=16;endFill=0;html=1;exitX=0.5;exitY=1;exitDx=0;exitDy=0;entryX=0.307;entryY=-0.017;entryDx=0;entryDy=0;entryPerimeter=0;" edge="1" parent="WIyWlLk6GJQsqaUBKTNV-1" source="zkfFHV4jXpPFQw0GAbJ--17" target="B6ZiT-XVmnk7u_5Jqb1H-3">
          <mxGeometry width="160" relative="1" as="geometry">
            <mxPoint x="280" y="340" as="sourcePoint" />
            <mxPoint x="440" y="340" as="targetPoint" />
          </mxGeometry>
        </mxCell>
        <mxCell id="B6ZiT-XVmnk7u_5Jqb1H-48" value="" style="endArrow=diamondThin;endFill=0;endSize=24;html=1;exitX=-0.007;exitY=1;exitDx=0;exitDy=0;exitPerimeter=0;" edge="1" parent="WIyWlLk6GJQsqaUBKTNV-1" source="B6ZiT-XVmnk7u_5Jqb1H-44">
          <mxGeometry width="160" relative="1" as="geometry">
            <mxPoint x="420" y="201" as="sourcePoint" />
            <mxPoint x="420" y="201" as="targetPoint" />
            <Array as="points">
              <mxPoint x="480" y="201" />
            </Array>
          </mxGeometry>
        </mxCell>
        <mxCell id="B6ZiT-XVmnk7u_5Jqb1H-49" value="have" style="text;align=center;fontStyle=1;verticalAlign=middle;spacingLeft=3;spacingRight=3;strokeColor=none;rotatable=0;points=[[0,0.5],[1,0.5]];portConstraint=eastwest;" vertex="1" parent="WIyWlLk6GJQsqaUBKTNV-1">
          <mxGeometry x="470" y="160" width="60" height="26" as="geometry" />
        </mxCell>
        <mxCell id="B6ZiT-XVmnk7u_5Jqb1H-43" value="Aquirium" style="swimlane;fontStyle=0;childLayout=stackLayout;horizontal=1;startSize=26;fillColor=none;horizontalStack=0;resizeParent=1;resizeParentMax=0;resizeLast=0;collapsible=1;marginBottom=0;" vertex="1" parent="WIyWlLk6GJQsqaUBKTNV-1">
          <mxGeometry x="550" y="150" width="140" height="136" as="geometry" />
        </mxCell>
        <mxCell id="B6ZiT-XVmnk7u_5Jqb1H-44" value="+ length :int" style="text;strokeColor=none;fillColor=none;align=left;verticalAlign=top;spacingLeft=4;spacingRight=4;overflow=hidden;rotatable=0;points=[[0,0.5],[1,0.5]];portConstraint=eastwest;" vertex="1" parent="B6ZiT-XVmnk7u_5Jqb1H-43">
          <mxGeometry y="26" width="140" height="26" as="geometry" />
        </mxCell>
        <mxCell id="B6ZiT-XVmnk7u_5Jqb1H-45" value="+ height :int" style="text;strokeColor=none;fillColor=none;align=left;verticalAlign=top;spacingLeft=4;spacingRight=4;overflow=hidden;rotatable=0;points=[[0,0.5],[1,0.5]];portConstraint=eastwest;" vertex="1" parent="B6ZiT-XVmnk7u_5Jqb1H-43">
          <mxGeometry y="52" width="140" height="26" as="geometry" />
        </mxCell>
        <mxCell id="B6ZiT-XVmnk7u_5Jqb1H-46" value="+ width : int" style="text;strokeColor=none;fillColor=none;align=left;verticalAlign=top;spacingLeft=4;spacingRight=4;overflow=hidden;rotatable=0;points=[[0,0.5],[1,0.5]];portConstraint=eastwest;" vertex="1" parent="B6ZiT-XVmnk7u_5Jqb1H-43">
          <mxGeometry y="78" width="140" height="32" as="geometry" />
        </mxCell>
        <mxCell id="B6ZiT-XVmnk7u_5Jqb1H-47" value="+ fillFish() : void" style="text;strokeColor=none;fillColor=none;align=left;verticalAlign=top;spacingLeft=4;spacingRight=4;overflow=hidden;rotatable=0;points=[[0,0.5],[1,0.5]];portConstraint=eastwest;" vertex="1" parent="B6ZiT-XVmnk7u_5Jqb1H-43">
          <mxGeometry y="110" width="140" height="26" as="geometry" />
        </mxCell>
        <mxCell id="B6ZiT-XVmnk7u_5Jqb1H-51" value="Q1 draw  the class diagram relationship based on week 1 " style="text;align=center;fontStyle=1;verticalAlign=middle;spacingLeft=3;spacingRight=3;strokeColor=none;rotatable=0;points=[[0,0.5],[1,0.5]];portConstraint=eastwest;" vertex="1" parent="WIyWlLk6GJQsqaUBKTNV-1">
          <mxGeometry x="40" y="50" width="550" height="26" as="geometry" />
        </mxCell>
      </root>
    </mxGraphModel>
  </diagram>
  <diagram id="Zk4hrs9dQAwxNpQNC8_k" name="Page-2">
    <mxGraphModel dx="868" dy="482" grid="1" gridSize="10" guides="1" tooltips="1" connect="1" arrows="1" fold="1" page="1" pageScale="1" pageWidth="850" pageHeight="1100" math="0" shadow="0">
      <root>
        <mxCell id="QQi8MCvBWivWiMJCKwUC-0" />
        <mxCell id="QQi8MCvBWivWiMJCKwUC-1" parent="QQi8MCvBWivWiMJCKwUC-0" />
        <mxCell id="QQi8MCvBWivWiMJCKwUC-3" value="Q2 " style="text;align=center;fontStyle=1;verticalAlign=middle;spacingLeft=3;spacingRight=3;strokeColor=none;rotatable=0;points=[[0,0.5],[1,0.5]];portConstraint=eastwest;" vertex="1" parent="QQi8MCvBWivWiMJCKwUC-1">
          <mxGeometry x="60" y="40" width="80" height="26" as="geometry" />
        </mxCell>
        <mxCell id="QQi8MCvBWivWiMJCKwUC-4" value="Book" style="swimlane;fontStyle=1;align=center;verticalAlign=top;childLayout=stackLayout;horizontal=1;startSize=26;horizontalStack=0;resizeParent=1;resizeParentMax=0;resizeLast=0;collapsible=1;marginBottom=0;" vertex="1" parent="QQi8MCvBWivWiMJCKwUC-1">
          <mxGeometry x="340" y="110" width="160" height="204" as="geometry" />
        </mxCell>
        <mxCell id="QQi8MCvBWivWiMJCKwUC-5" value="-Isbn : int " style="text;strokeColor=none;fillColor=none;align=left;verticalAlign=top;spacingLeft=4;spacingRight=4;overflow=hidden;rotatable=0;points=[[0,0.5],[1,0.5]];portConstraint=eastwest;" vertex="1" parent="QQi8MCvBWivWiMJCKwUC-4">
          <mxGeometry y="26" width="160" height="26" as="geometry" />
        </mxCell>
        <mxCell id="QQi8MCvBWivWiMJCKwUC-8" value="- AuthorName : String" style="text;strokeColor=none;fillColor=none;align=left;verticalAlign=top;spacingLeft=4;spacingRight=4;overflow=hidden;rotatable=0;points=[[0,0.5],[1,0.5]];portConstraint=eastwest;" vertex="1" parent="QQi8MCvBWivWiMJCKwUC-4">
          <mxGeometry y="52" width="160" height="26" as="geometry" />
        </mxCell>
        <mxCell id="QQi8MCvBWivWiMJCKwUC-9" value="# CDprovided : string" style="text;strokeColor=none;fillColor=none;align=left;verticalAlign=top;spacingLeft=4;spacingRight=4;overflow=hidden;rotatable=0;points=[[0,0.5],[1,0.5]];portConstraint=eastwest;" vertex="1" parent="QQi8MCvBWivWiMJCKwUC-4">
          <mxGeometry y="78" width="160" height="26" as="geometry" />
        </mxCell>
        <mxCell id="QQi8MCvBWivWiMJCKwUC-6" value="" style="line;strokeWidth=1;fillColor=none;align=left;verticalAlign=middle;spacingTop=-1;spacingLeft=3;spacingRight=3;rotatable=0;labelPosition=right;points=[];portConstraint=eastwest;" vertex="1" parent="QQi8MCvBWivWiMJCKwUC-4">
          <mxGeometry y="104" width="160" height="48" as="geometry" />
        </mxCell>
        <mxCell id="QQi8MCvBWivWiMJCKwUC-10" value="+SetBookName()" style="text;strokeColor=none;fillColor=none;align=left;verticalAlign=top;spacingLeft=4;spacingRight=4;overflow=hidden;rotatable=0;points=[[0,0.5],[1,0.5]];portConstraint=eastwest;" vertex="1" parent="QQi8MCvBWivWiMJCKwUC-4">
          <mxGeometry y="152" width="160" height="26" as="geometry" />
        </mxCell>
        <mxCell id="QQi8MCvBWivWiMJCKwUC-7" value="+GetBook()" style="text;strokeColor=none;fillColor=none;align=left;verticalAlign=top;spacingLeft=4;spacingRight=4;overflow=hidden;rotatable=0;points=[[0,0.5],[1,0.5]];portConstraint=eastwest;" vertex="1" parent="QQi8MCvBWivWiMJCKwUC-4">
          <mxGeometry y="178" width="160" height="26" as="geometry" />
        </mxCell>
      </root>
    </mxGraphModel>
  </diagram>
  <diagram id="yYma8DdV-mIwvzfLpLG9" name="Page-3">
    <mxGraphModel dx="868" dy="482" grid="1" gridSize="10" guides="1" tooltips="1" connect="1" arrows="1" fold="1" page="1" pageScale="1" pageWidth="850" pageHeight="1100" math="0" shadow="0">
      <root>
        <mxCell id="na8NFxwgWezLCR7o5Q3U-0" />
        <mxCell id="na8NFxwgWezLCR7o5Q3U-1" parent="na8NFxwgWezLCR7o5Q3U-0" />
        <mxCell id="qhxpcATS1l5KvApoZj6C-7" value="Q3" style="text;align=center;fontStyle=1;verticalAlign=middle;spacingLeft=3;spacingRight=3;strokeColor=none;rotatable=0;points=[[0,0.5],[1,0.5]];portConstraint=eastwest;" vertex="1" parent="na8NFxwgWezLCR7o5Q3U-1">
          <mxGeometry x="80" y="70" width="80" height="26" as="geometry" />
        </mxCell>
        <mxCell id="qhxpcATS1l5KvApoZj6C-34" style="edgeStyle=orthogonalEdgeStyle;rounded=0;orthogonalLoop=1;jettySize=auto;html=1;entryX=0;entryY=0.5;entryDx=0;entryDy=0;" edge="1" parent="na8NFxwgWezLCR7o5Q3U-1" source="qhxpcATS1l5KvApoZj6C-15" target="qhxpcATS1l5KvApoZj6C-23">
          <mxGeometry relative="1" as="geometry" />
        </mxCell>
        <mxCell id="qhxpcATS1l5KvApoZj6C-15" value="Publisher" style="html=1;" vertex="1" parent="na8NFxwgWezLCR7o5Q3U-1">
          <mxGeometry x="65" y="160" width="110" height="50" as="geometry" />
        </mxCell>
        <mxCell id="qhxpcATS1l5KvApoZj6C-23" value="Book&lt;span style=&quot;color: rgba(0 , 0 , 0 , 0) ; font-family: monospace ; font-size: 0px&quot;&gt;%3CmxGraphModel%3E%3Croot%3E%3CmxCell%20id%3D%220%22%2F%3E%3CmxCell%20id%3D%221%22%20parent%3D%220%22%2F%3E%3CmxCell%20id%3D%222%22%20value%3D%22Publisher%22%20style%3D%22html%3D1%3B%22%20vertex%3D%221%22%20parent%3D%221%22%3E%3CmxGeometry%20x%3D%2265%22%20y%3D%22160%22%20width%3D%22110%22%20height%3D%2250%22%20as%3D%22geometry%22%2F%3E%3C%2FmxCell%3E%3C%2Froot%3E%3C%2FmxGraphModel%3E&lt;/span&gt;" style="html=1;" vertex="1" parent="na8NFxwgWezLCR7o5Q3U-1">
          <mxGeometry x="290" y="120" width="110" height="50" as="geometry" />
        </mxCell>
        <mxCell id="qhxpcATS1l5KvApoZj6C-24" value="Owner" style="html=1;" vertex="1" parent="na8NFxwgWezLCR7o5Q3U-1">
          <mxGeometry x="310" y="290" width="110" height="60" as="geometry" />
        </mxCell>
        <mxCell id="qhxpcATS1l5KvApoZj6C-31" style="rounded=0;orthogonalLoop=1;jettySize=auto;html=1;entryX=0.5;entryY=1;entryDx=0;entryDy=0;edgeStyle=orthogonalEdgeStyle;endArrow=none;endFill=0;" edge="1" parent="na8NFxwgWezLCR7o5Q3U-1" source="qhxpcATS1l5KvApoZj6C-25" target="qhxpcATS1l5KvApoZj6C-15">
          <mxGeometry relative="1" as="geometry" />
        </mxCell>
        <mxCell id="qhxpcATS1l5KvApoZj6C-25" value="Author" style="html=1;" vertex="1" parent="na8NFxwgWezLCR7o5Q3U-1">
          <mxGeometry x="65" y="280" width="110" height="50" as="geometry" />
        </mxCell>
        <mxCell id="qhxpcATS1l5KvApoZj6C-33" style="edgeStyle=orthogonalEdgeStyle;rounded=0;orthogonalLoop=1;jettySize=auto;html=1;entryX=1;entryY=0.75;entryDx=0;entryDy=0;endArrow=none;endFill=0;startArrow=diamondThin;startFill=1;" edge="1" parent="na8NFxwgWezLCR7o5Q3U-1" source="qhxpcATS1l5KvApoZj6C-26" target="qhxpcATS1l5KvApoZj6C-23">
          <mxGeometry relative="1" as="geometry">
            <Array as="points">
              <mxPoint x="570" y="158" />
            </Array>
          </mxGeometry>
        </mxCell>
        <mxCell id="qhxpcATS1l5KvApoZj6C-37" style="edgeStyle=orthogonalEdgeStyle;rounded=0;orthogonalLoop=1;jettySize=auto;html=1;entryX=1;entryY=0.75;entryDx=0;entryDy=0;startArrow=none;startFill=0;endArrow=diamondThin;endFill=1;" edge="1" parent="na8NFxwgWezLCR7o5Q3U-1" source="qhxpcATS1l5KvApoZj6C-26" target="qhxpcATS1l5KvApoZj6C-24">
          <mxGeometry relative="1" as="geometry" />
        </mxCell>
        <mxCell id="qhxpcATS1l5KvApoZj6C-26" value="Library" style="html=1;" vertex="1" parent="na8NFxwgWezLCR7o5Q3U-1">
          <mxGeometry x="540" y="240" width="110" height="50" as="geometry" />
        </mxCell>
        <mxCell id="qhxpcATS1l5KvApoZj6C-30" value="" style="edgeStyle=orthogonalEdgeStyle;rounded=0;orthogonalLoop=1;jettySize=auto;html=1;endArrow=none;endFill=0;" edge="1" parent="na8NFxwgWezLCR7o5Q3U-1" source="qhxpcATS1l5KvApoZj6C-27" target="qhxpcATS1l5KvApoZj6C-24">
          <mxGeometry relative="1" as="geometry" />
        </mxCell>
        <mxCell id="qhxpcATS1l5KvApoZj6C-27" value="Fiction Category" style="html=1;" vertex="1" parent="na8NFxwgWezLCR7o5Q3U-1">
          <mxGeometry x="220" y="390" width="110" height="50" as="geometry" />
        </mxCell>
        <mxCell id="qhxpcATS1l5KvApoZj6C-29" style="edgeStyle=orthogonalEdgeStyle;rounded=0;orthogonalLoop=1;jettySize=auto;html=1;entryX=0.5;entryY=1;entryDx=0;entryDy=0;endArrow=none;endFill=0;" edge="1" parent="na8NFxwgWezLCR7o5Q3U-1" source="qhxpcATS1l5KvApoZj6C-28" target="qhxpcATS1l5KvApoZj6C-24">
          <mxGeometry relative="1" as="geometry" />
        </mxCell>
        <mxCell id="qhxpcATS1l5KvApoZj6C-28" value="Mystery Category" style="html=1;" vertex="1" parent="na8NFxwgWezLCR7o5Q3U-1">
          <mxGeometry x="400" y="390" width="110" height="50" as="geometry" />
        </mxCell>
        <mxCell id="qhxpcATS1l5KvApoZj6C-35" value="write" style="text;align=center;fontStyle=1;verticalAlign=middle;spacingLeft=3;spacingRight=3;strokeColor=none;rotatable=0;points=[[0,0.5],[1,0.5]];portConstraint=eastwest;" vertex="1" parent="na8NFxwgWezLCR7o5Q3U-1">
          <mxGeometry x="130" y="234" width="80" height="26" as="geometry" />
        </mxCell>
        <mxCell id="qhxpcATS1l5KvApoZj6C-36" value="publish" style="text;align=center;fontStyle=1;verticalAlign=middle;spacingLeft=3;spacingRight=3;strokeColor=none;rotatable=0;points=[[0,0.5],[1,0.5]];portConstraint=eastwest;" vertex="1" parent="na8NFxwgWezLCR7o5Q3U-1">
          <mxGeometry x="170" y="100" width="80" height="26" as="geometry" />
        </mxCell>
        <mxCell id="qhxpcATS1l5KvApoZj6C-38" value="1" style="text;align=center;fontStyle=1;verticalAlign=middle;spacingLeft=3;spacingRight=3;strokeColor=none;rotatable=0;points=[[0,0.5],[1,0.5]];portConstraint=eastwest;" vertex="1" parent="na8NFxwgWezLCR7o5Q3U-1">
          <mxGeometry x="480" y="208" width="80" height="26" as="geometry" />
        </mxCell>
        <mxCell id="qhxpcATS1l5KvApoZj6C-39" value="1 ..*" style="text;align=center;fontStyle=1;verticalAlign=middle;spacingLeft=3;spacingRight=3;strokeColor=none;rotatable=0;points=[[0,0.5],[1,0.5]];portConstraint=eastwest;" vertex="1" parent="na8NFxwgWezLCR7o5Q3U-1">
          <mxGeometry x="470" y="340" width="80" height="26" as="geometry" />
        </mxCell>
      </root>
    </mxGraphModel>
  </diagram>
</mxfile>
